<svg xmlns="http://www.w3.org/2000/svg" viewBox="0 0 820 560"><rect width="820" height="560" rx="24" fill="#efe1cc"/><rect x="74" y="56" width="672" height="448" rx="20" fill="#fff8ed" stroke="#74142b" stroke-width="5"/><rect x="74" y="56" width="672" height="68" rx="18" fill="#74142b"/><text x="118" y="99" font-family="Georgia, serif" font-size="28" font-weight="700" fill="#fff8ed">The Alma</text><rect x="560" y="76" width="130" height="32" rx="16" fill="#d6b36d"/><text x="625" y="98" text-anchor="middle" font-family="Arial" font-size="14" font-weight="700" fill="#281c16">BOOK A TABLE</text><text x="128" y="190" font-family="Georgia, serif" font-size="42" font-weight="700" fill="#251f1d">A proper local,</text><text x="128" y="238" font-family="Georgia, serif" font-size="42" font-weight="700" fill="#251f1d">worth booking.</text><text x="128" y="286" font-family="Arial" font-size="20" fill="#62534b">Menus, events, Sunday roasts and private hire all in one clear journey.</text><rect x="128" y="322" width="130" height="44" rx="22" fill="#74142b"/><text x="193" y="350" text-anchor="middle" font-family="Arial" font-size="15" font-weight="700" fill="#fff8ed">View menus</text><rect x="278" y="322" width="130" height="44" rx="22" fill="#fff3df" stroke="#d6b36d"/><text x="343" y="350" text-anchor="middle" font-family="Arial" font-size="15" font-weight="700" fill="#74142b">Book now</text><rect x="486" y="154" width="178" height="210" rx="18" fill="#e4cfa9"/><path d="M506 330c44-132 104-132 138 0" fill="#d6b36d" opacity=".9"/><circle cx="578" cy="218" r="42" fill="#74142b" opacity=".9"/><text x="410" y="530" text-anchor="middle" font-family="Arial" font-size="20" fill="#6a5a4d">After: clear proposition, trust signals and booking-focused calls to action</text></svg>