<svg xmlns="http://www.w3.org/2000/svg" viewBox="0 0 820 220" role="img" aria-labelledby="title desc">
<title id="title">The Alma Group logo</title>
<desc id="desc">A warm burgundy pub-sign inspired mark with the letter A and The Alma Group wordmark.</desc>
<defs>
  <linearGradient id="burgundy" x1="0" y1="0" x2="1" y2="1"><stop offset="0" stop-color="#8a1733"/><stop offset="1" stop-color="#5f0f25"/></linearGradient>
  <filter id="softShadow" x="-20%" y="-20%" width="140%" height="140%"><feDropShadow dx="0" dy="6" stdDeviation="8" flood-color="#301018" flood-opacity=".18"/></filter>
</defs>
<g filter="url(#softShadow)">
  <path d="M112 22h82c37 0 68 31 68 68v40c0 37-31 68-68 68h-82c-37 0-68-31-68-68V90c0-37 31-68 68-68z" fill="url(#burgundy)"/>
  <path d="M69 118c29-8 52-29 64-57 2-5 9-5 12 0 13 27 37 47 66 55 5 1 5 8 0 10-29 8-53 29-66 56-3 5-10 5-12 0-12-28-35-49-64-57-5-1-5-8 0-9z" fill="#fff7eb" opacity=".10"/>
</g>
<path d="M153 62l55 112h-31l-10-23h-55l-10 23H72l55-112h26zm4 65l-17-40-18 40h35z" fill="#fff9ef"/>
<path d="M139 30c5 0 9 4 9 9s-4 9-9 9-9-4-9-9 4-9 9-9zm0 0v-12" stroke="#e3c07c" stroke-width="6" stroke-linecap="round"/>
<g transform="translate(300,42)">
  <text x="0" y="56" font-family="Georgia, 'Times New Roman', serif" font-size="58" font-weight="700" fill="#251f1d">The Alma Group</text>
  <text x="2" y="100" font-family="Arial, Helvetica, sans-serif" font-size="22" letter-spacing="3.8" font-weight="700" fill="#7a1730">HOSPITALITY BRAND TRANSFORMATION</text>
  <path d="M2 126h340" stroke="#d6b36d" stroke-width="4" stroke-linecap="round"/>
  <text x="2" y="162" font-family="Georgia, 'Times New Roman', serif" font-size="25" fill="#5b504a">Signs • Websites • Menus • Marketing • Guest Experience</text>
</g>
</svg>